<svg xmlns="http://www.w3.org/2000/svg" xmlns:xlink="http://www.w3.org/1999/xlink" width="500" zoomAndPan="magnify" viewBox="0 0 375 374.999991" height="500" preserveAspectRatio="xMidYMid meet" version="1.0"><defs><g/><clipPath id="ae6d4183de"><path d="M 0 0 L 257 0 L 257 372 L 0 372 Z M 0 0 " clip-rule="nonzero"/></clipPath><clipPath id="d1debf1ab8"><path d="M 57.621094 -119.285156 L 337.683594 208.941406 L 86.277344 423.460938 L -193.785156 95.230469 Z M 57.621094 -119.285156 " clip-rule="nonzero"/></clipPath><clipPath id="5476bb55ee"><path d="M 57.621094 -119.285156 L 337.683594 208.941406 L 86.277344 423.460938 L -193.785156 95.230469 Z M 57.621094 -119.285156 " clip-rule="nonzero"/></clipPath><clipPath id="60543a127a"><path d="M 96 309 L 144 309 L 144 357 L 96 357 Z M 96 309 " clip-rule="nonzero"/></clipPath><clipPath id="fe3a71c77e"><path d="M 143.644531 309.609375 L 144.058594 356.632812 L 97.035156 357.050781 L 96.617188 310.023438 Z M 143.644531 309.609375 " clip-rule="nonzero"/></clipPath><clipPath id="5090c4c7c1"><path d="M 143.851562 333.121094 C 143.738281 320.136719 133.117188 309.703125 120.128906 309.816406 C 107.144531 309.933594 96.710938 320.550781 96.828125 333.539062 C 96.941406 346.523438 107.5625 356.957031 120.546875 356.839844 C 133.53125 356.726562 143.964844 346.105469 143.851562 333.121094 Z M 143.851562 333.121094 " clip-rule="nonzero"/></clipPath><clipPath id="d880b2af56"><path d="M 0.480469 0.601562 L 48 0.601562 L 48 48 L 0.480469 48 Z M 0.480469 0.601562 " clip-rule="nonzero"/></clipPath><clipPath id="9f20c1a1e9"><path d="M 47.644531 0.609375 L 48.058594 47.632812 L 1.035156 48.050781 L 0.617188 1.023438 Z M 47.644531 0.609375 " clip-rule="nonzero"/></clipPath><clipPath id="3021dca1d2"><path d="M 47.851562 24.121094 C 47.738281 11.136719 37.117188 0.703125 24.128906 0.816406 C 11.144531 0.933594 0.710938 11.550781 0.828125 24.539062 C 0.941406 37.523438 11.5625 47.957031 24.546875 47.839844 C 37.53125 47.726562 47.964844 37.105469 47.851562 24.121094 Z M 47.851562 24.121094 " clip-rule="nonzero"/></clipPath><clipPath id="902db60a4e"><rect x="0" width="48" y="0" height="48"/></clipPath><clipPath id="6652150e66"><path d="M 177 234 L 225 234 L 225 282 L 177 282 Z M 177 234 " clip-rule="nonzero"/></clipPath><clipPath id="206474b26d"><path d="M 223.851562 234.171875 L 224.269531 281.199219 L 177.246094 281.613281 L 176.828125 234.589844 Z M 223.851562 234.171875 " clip-rule="nonzero"/></clipPath><clipPath id="69da4215bb"><path d="M 224.0625 257.683594 C 223.945312 244.699219 213.324219 234.265625 200.339844 234.382812 C 187.355469 234.496094 176.921875 245.117188 177.035156 258.101562 C 177.152344 271.085938 187.769531 281.519531 200.757812 281.40625 C 213.742188 281.289062 224.175781 270.671875 224.0625 257.683594 Z M 224.0625 257.683594 " clip-rule="nonzero"/></clipPath><clipPath id="69ab030ce1"><path d="M 0 0.238281 L 47.398438 0.238281 L 47.398438 47.761719 L 0 47.761719 Z M 0 0.238281 " clip-rule="nonzero"/></clipPath><clipPath id="b2c2121c36"><path d="M 46.851562 0.171875 L 47.269531 47.199219 L 0.246094 47.613281 L -0.171875 0.589844 Z M 46.851562 0.171875 " clip-rule="nonzero"/></clipPath><clipPath id="5dd2386eb1"><path d="M 47.0625 23.683594 C 46.945312 10.699219 36.324219 0.265625 23.339844 0.382812 C 10.355469 0.496094 -0.078125 11.117188 0.0351562 24.101562 C 0.152344 37.085938 10.769531 47.519531 23.757812 47.40625 C 36.742188 47.289062 47.175781 36.671875 47.0625 23.683594 Z M 47.0625 23.683594 " clip-rule="nonzero"/></clipPath><clipPath id="f28a77c429"><rect x="0" width="48" y="0" height="48"/></clipPath><clipPath id="4e499edf5c"><path d="M 191 121 L 239 121 L 239 169 L 191 169 Z M 191 121 " clip-rule="nonzero"/></clipPath><clipPath id="bf5261ca15"><path d="M 238.128906 121.371094 L 238.542969 168.398438 L 191.519531 168.8125 L 191.101562 121.789062 Z M 238.128906 121.371094 " clip-rule="nonzero"/></clipPath><clipPath id="6c7e50c5f3"><path d="M 238.335938 144.886719 C 238.21875 131.898438 227.601562 121.464844 214.613281 121.582031 C 201.628906 121.695312 191.195312 132.316406 191.3125 145.300781 C 191.425781 158.289062 202.046875 168.722656 215.03125 168.605469 C 228.015625 168.492188 238.449219 157.871094 238.335938 144.886719 Z M 238.335938 144.886719 " clip-rule="nonzero"/></clipPath><clipPath id="082f2a1043"><path d="M 0.0390625 0.441406 L 47.558594 0.441406 L 47.558594 47.960938 L 0.0390625 47.960938 Z M 0.0390625 0.441406 " clip-rule="nonzero"/></clipPath><clipPath id="c7bdecc833"><path d="M 47.128906 0.371094 L 47.542969 47.398438 L 0.519531 47.8125 L 0.101562 0.789062 Z M 47.128906 0.371094 " clip-rule="nonzero"/></clipPath><clipPath id="f07ff4d7b3"><path d="M 47.335938 23.886719 C 47.21875 10.898438 36.601562 0.464844 23.613281 0.582031 C 10.628906 0.695312 0.195312 11.316406 0.3125 24.300781 C 0.425781 37.289062 11.046875 47.722656 24.03125 47.605469 C 37.015625 47.492188 47.449219 36.871094 47.335938 23.886719 Z M 47.335938 23.886719 " clip-rule="nonzero"/></clipPath><clipPath id="7657173b27"><rect x="0" width="48" y="0" height="48"/></clipPath><clipPath id="e4a64a1dd7"><path d="M 117 26 L 165 26 L 165 74 L 117 74 Z M 117 26 " clip-rule="nonzero"/></clipPath><clipPath id="cc7de56df5"><path d="M 164.648438 26.621094 L 165.066406 73.644531 L 118.039062 74.0625 L 117.625 27.039062 Z M 164.648438 26.621094 " clip-rule="nonzero"/></clipPath><clipPath id="0f6cd4d8f2"><path d="M 164.855469 50.132812 C 164.742188 37.148438 154.121094 26.714844 141.136719 26.828125 C 128.152344 26.945312 117.71875 37.566406 117.832031 50.550781 C 117.949219 63.535156 128.566406 73.96875 141.554688 73.855469 C 154.539062 73.738281 164.972656 63.121094 164.855469 50.132812 Z M 164.855469 50.132812 " clip-rule="nonzero"/></clipPath><clipPath id="ad213a7b49"><path d="M 0.601562 0.640625 L 48 0.640625 L 48 48 L 0.601562 48 Z M 0.601562 0.640625 " clip-rule="nonzero"/></clipPath><clipPath id="1b14b7f3f5"><path d="M 47.648438 0.621094 L 48.066406 47.644531 L 1.039062 48.0625 L 0.625 1.039062 Z M 47.648438 0.621094 " clip-rule="nonzero"/></clipPath><clipPath id="f9083c86b6"><path d="M 47.855469 24.132812 C 47.742188 11.148438 37.121094 0.714844 24.136719 0.828125 C 11.152344 0.945312 0.71875 11.566406 0.832031 24.550781 C 0.949219 37.535156 11.566406 47.96875 24.554688 47.855469 C 37.539062 47.738281 47.972656 37.121094 47.855469 24.132812 Z M 47.855469 24.132812 " clip-rule="nonzero"/></clipPath><clipPath id="409d9fd6eb"><rect x="0" width="48" y="0" height="48"/></clipPath><clipPath id="4240aeda3f"><path d="M 1 8 L 9.960938 8 L 9.960938 31 L 1 31 Z M 1 8 " clip-rule="nonzero"/></clipPath><clipPath id="65f5d3eafa"><rect x="0" width="10" y="0" height="41"/></clipPath><clipPath id="3297f5d77a"><path d="M 2 8 L 19.960938 8 L 19.960938 32 L 2 32 Z M 2 8 " clip-rule="nonzero"/></clipPath><clipPath id="20e89cc4eb"><rect x="0" width="20" y="0" height="42"/></clipPath><clipPath id="b93d4eeb3f"><path d="M 0.0390625 9 L 19.238281 9 L 19.238281 32 L 0.0390625 32 Z M 0.0390625 9 " clip-rule="nonzero"/></clipPath><clipPath id="42076c251b"><rect x="0" width="20" y="0" height="41"/></clipPath><clipPath id="3084ec72ba"><rect x="0" width="22" y="0" height="42"/></clipPath><clipPath id="6e9a915ba2"><path d="M 0 6 L 79 6 L 79 216 L 0 216 Z M 0 6 " clip-rule="nonzero"/></clipPath><clipPath id="f6076deed7"><path d="M 20.679688 -10.785156 L 78.648438 140.941406 L -115.953125 215.289062 L -173.921875 63.566406 Z M 20.679688 -10.785156 " clip-rule="nonzero"/></clipPath><clipPath id="90c044b383"><path d="M 134.417969 -54.238281 L 288.410156 348.816406 L -20.3125 466.773438 L -174.308594 63.714844 Z M 134.417969 -54.238281 " clip-rule="nonzero"/></clipPath><clipPath id="01947cd4a6"><rect x="0" width="330" y="0" height="375"/></clipPath></defs><g transform="matrix(1, 0, 0, 1, 0, 0)"><g clip-path="url(#01947cd4a6)"><g clip-path="url(#ae6d4183de)"><g clip-path="url(#d1debf1ab8)"><g clip-path="url(#5476bb55ee)"><path fill="#14bf65" d="M 236.007812 270.128906 C 235.175781 272.71875 234.070312 275.222656 232.683594 277.585938 C 218.371094 301.933594 182.277344 303.640625 165.777344 280.847656 C 156.621094 268.195312 143.070312 259.4375 128.199219 254.65625 C 128.167969 254.644531 128.132812 254.632812 128.101562 254.625 C 115.214844 250.308594 102.308594 246.171875 89.019531 243.269531 C 82.707031 241.875 76.257812 240.875 69.785156 241.269531 C 65.597656 241.554688 52.449219 242.050781 53.75 249.015625 C 54.074219 250.785156 55.25 252.214844 56.425781 253.535156 C 71.707031 271.144531 91.679688 286.125 115.066406 290.308594 C 128.5 292.710938 141.757812 294.515625 151.066406 305.59375 C 159.085938 315.136719 162.40625 328.269531 159.539062 340.4375 C 153.585938 365.683594 125.800781 378.859375 102.3125 367.03125 C 86.886719 359.261719 78.128906 341.832031 81.042969 324.804688 C 85.070312 301.234375 60.175781 288.351562 42.285156 279.582031 C 24.378906 270.804688 3.3125 271.175781 -15.949219 267.949219 C -35.769531 264.632812 -56.882812 255.207031 -66.480469 236.503906 C -73.726562 222.382812 -74.832031 205.210938 -69.539062 190.253906 C -65.367188 178.472656 -56.800781 169.160156 -50.277344 158.707031 C -43.390625 147.675781 -41.910156 138.195312 -42.722656 125.34375 C -44.203125 101.84375 -52.542969 78.769531 -66.675781 59.914062 C -71.671875 53.25 -77.414062 47.003906 -80.863281 39.421875 C -88.699219 22.214844 -81.828125 -0.273438 -65.796875 -10.300781 C -49.761719 -20.324219 -26.652344 -16.730469 -14.304688 -2.410156 C -4.363281 9.121094 -2.289062 26.417969 -8.078125 40.335938 C -11.304688 48.085938 -16.195312 54.46875 -18.695312 62.6875 C -21.644531 72.386719 -22.496094 82.710938 -20.824219 92.726562 C -18.1875 108.554688 -12.824219 123.753906 -1.976562 133.230469 C 15.425781 148.429688 36.332031 132.71875 51.195312 121.863281 C 69.683594 108.351562 92.75 88.550781 99.347656 65.792969 C 101.945312 56.820312 100.40625 47.496094 102.945312 38.738281 C 107.480469 23.09375 121.75 10.324219 138.097656 8.601562 C 156.917969 6.625 176.273438 19.785156 181.101562 38.085938 C 184.417969 50.652344 180.488281 64.414062 172.117188 74.15625 C 163.371094 84.332031 151.867188 85.894531 139.425781 88.578125 C 123.820312 91.941406 109.074219 99.136719 96.734375 109.253906 C 84.285156 119.464844 68.832031 132.871094 63.082031 148.234375 C 54.96875 169.910156 87.425781 164.773438 98.8125 162.664062 C 113.230469 159.992188 127.148438 155.375 141.320312 151.703125 C 149.355469 149.617188 157.886719 148.296875 165.21875 144.195312 C 173.859375 139.363281 177.402344 131.335938 182.015625 123.019531 C 184.597656 118.359375 188.902344 114.1875 193.140625 111.046875 C 201.640625 104.753906 212.65625 101.273438 223.222656 103.042969 C 249.972656 107.527344 264.558594 135.972656 252.914062 160.144531 C 247.9375 170.476562 238.414062 178.183594 227.378906 181.191406 C 214.828125 184.617188 202.425781 179.542969 190.265625 176.683594 C 174.304688 172.925781 158.296875 171.484375 142.132812 174.699219 C 106.105469 181.875 68.855469 193.316406 76.109375 206.167969 C 82.726562 217.910156 102.4375 221.003906 114.265625 223.582031 C 137.027344 228.535156 155.515625 230.605469 178.171875 223.238281 C 185.898438 220.726562 193.691406 217.738281 201.8125 217.84375 C 210.417969 217.957031 218.804688 221.675781 225.15625 227.488281 C 236.605469 237.96875 240.714844 255.449219 236.007812 270.128906 Z M 236.007812 270.128906 " fill-opacity="1" fill-rule="nonzero"/></g></g></g><g clip-path="url(#60543a127a)"><g clip-path="url(#fe3a71c77e)"><g clip-path="url(#5090c4c7c1)"><g transform="matrix(1, 0, 0, 1, 96, 309)"><g clip-path="url(#902db60a4e)"><g clip-path="url(#d880b2af56)"><g clip-path="url(#9f20c1a1e9)"><g clip-path="url(#3021dca1d2)"><path fill="#1d549d" d="M 47.644531 0.609375 L 48.058594 47.632812 L 1.035156 48.050781 L 0.617188 1.023438 Z M 47.644531 0.609375 " fill-opacity="1" fill-rule="nonzero"/></g></g></g></g></g></g></g></g><g clip-path="url(#6652150e66)"><g clip-path="url(#206474b26d)"><g clip-path="url(#69da4215bb)"><g transform="matrix(1, 0, 0, 1, 177, 234)"><g clip-path="url(#f28a77c429)"><g clip-path="url(#69ab030ce1)"><g clip-path="url(#b2c2121c36)"><g clip-path="url(#5dd2386eb1)"><path fill="#1d549d" d="M 46.851562 0.171875 L 47.269531 47.199219 L 0.246094 47.613281 L -0.171875 0.589844 Z M 46.851562 0.171875 " fill-opacity="1" fill-rule="nonzero"/></g></g></g></g></g></g></g></g><g clip-path="url(#4e499edf5c)"><g clip-path="url(#bf5261ca15)"><g clip-path="url(#6c7e50c5f3)"><g transform="matrix(1, 0, 0, 1, 191, 121)"><g clip-path="url(#7657173b27)"><g clip-path="url(#082f2a1043)"><g clip-path="url(#c7bdecc833)"><g clip-path="url(#f07ff4d7b3)"><path fill="#1d549d" d="M 47.128906 0.371094 L 47.542969 47.398438 L 0.519531 47.8125 L 0.101562 0.789062 Z M 47.128906 0.371094 " fill-opacity="1" fill-rule="nonzero"/></g></g></g></g></g></g></g></g><g clip-path="url(#e4a64a1dd7)"><g clip-path="url(#cc7de56df5)"><g clip-path="url(#0f6cd4d8f2)"><g transform="matrix(1, 0, 0, 1, 117, 26)"><g clip-path="url(#409d9fd6eb)"><g clip-path="url(#ad213a7b49)"><g clip-path="url(#1b14b7f3f5)"><g clip-path="url(#f9083c86b6)"><path fill="#1d549d" d="M 47.648438 0.621094 L 48.066406 47.644531 L 1.039062 48.0625 L 0.625 1.039062 Z M 47.648438 0.621094 " fill-opacity="1" fill-rule="nonzero"/></g></g></g></g></g></g></g></g><g transform="matrix(1, 0, 0, 1, 135, 30)"><g clip-path="url(#65f5d3eafa)"><g clip-path="url(#4240aeda3f)"><g fill="#ffffff" fill-opacity="1"><g transform="translate(0.525127, 30.891679)"><g><path d="M 4.234375 0 L 4.234375 -15.25 L 1.015625 -15.25 L 1.015625 -19.453125 C 2.066406 -19.453125 2.925781 -19.632812 3.59375 -20 C 4.269531 -20.375 4.707031 -21.113281 4.90625 -22.21875 L 9.125 -22.21875 L 9.125 0 Z M 4.234375 0 "/></g></g></g></g></g></g><g transform="matrix(1, 0, 0, 1, 203, 124)"><g clip-path="url(#20e89cc4eb)"><g clip-path="url(#3297f5d77a)"><g fill="#ffffff" fill-opacity="1"><g transform="translate(0.664703, 31.642877)"><g><path d="M 1.40625 0 L 1.40625 -4.953125 L 10 -10.640625 C 10.40625 -10.910156 10.804688 -11.21875 11.203125 -11.5625 C 11.609375 -11.90625 11.988281 -12.285156 12.34375 -12.703125 C 12.707031 -13.117188 12.992188 -13.578125 13.203125 -14.078125 C 13.421875 -14.585938 13.53125 -15.132812 13.53125 -15.71875 C 13.53125 -16.320312 13.390625 -16.847656 13.109375 -17.296875 C 12.828125 -17.742188 12.421875 -18.082031 11.890625 -18.3125 C 11.367188 -18.550781 10.738281 -18.671875 10 -18.671875 C 9.238281 -18.671875 8.601562 -18.550781 8.09375 -18.3125 C 7.59375 -18.082031 7.1875 -17.75 6.875 -17.3125 C 6.570312 -16.875 6.363281 -16.351562 6.25 -15.75 C 6.144531 -15.144531 6.09375 -14.484375 6.09375 -13.765625 L 1.453125 -14.671875 C 1.398438 -16.335938 1.703125 -17.773438 2.359375 -18.984375 C 3.023438 -20.191406 4.015625 -21.117188 5.328125 -21.765625 C 6.640625 -22.421875 8.21875 -22.75 10.0625 -22.75 C 11.695312 -22.75 13.132812 -22.488281 14.375 -21.96875 C 15.625 -21.457031 16.59375 -20.707031 17.28125 -19.71875 C 17.96875 -18.726562 18.3125 -17.503906 18.3125 -16.046875 C 18.3125 -14.953125 18.128906 -13.957031 17.765625 -13.0625 C 17.410156 -12.164062 16.9375 -11.367188 16.34375 -10.671875 C 15.75 -9.972656 15.097656 -9.347656 14.390625 -8.796875 C 13.679688 -8.242188 12.988281 -7.769531 12.3125 -7.375 L 7.03125 -4.078125 L 7.03125 -3.796875 L 18.671875 -3.96875 L 18.671875 0 Z M 1.40625 0 "/></g></g></g></g></g></g><g transform="matrix(1, 0, 0, 1, 191, 237)"><g clip-path="url(#42076c251b)"><g clip-path="url(#b93d4eeb3f)"><g fill="#ffffff" fill-opacity="1"><g transform="translate(0.113366, 31.443045)"><g><path d="M 9.6875 0.46875 C 8.207031 0.46875 6.925781 0.320312 5.84375 0.03125 C 4.769531 -0.257812 3.867188 -0.6875 3.140625 -1.25 C 2.410156 -1.8125 1.847656 -2.492188 1.453125 -3.296875 C 1.066406 -4.109375 0.828125 -5.019531 0.734375 -6.03125 L 5.15625 -7.34375 C 5.195312 -6.664062 5.328125 -6.070312 5.546875 -5.5625 C 5.773438 -5.0625 6.097656 -4.632812 6.515625 -4.28125 C 6.929688 -3.9375 7.414062 -3.6875 7.96875 -3.53125 C 8.53125 -3.375 9.140625 -3.296875 9.796875 -3.296875 C 10.648438 -3.296875 11.398438 -3.414062 12.046875 -3.65625 C 12.703125 -3.90625 13.21875 -4.28125 13.59375 -4.78125 C 13.976562 -5.289062 14.171875 -5.941406 14.171875 -6.734375 C 14.171875 -7.742188 13.832031 -8.554688 13.15625 -9.171875 C 12.488281 -9.785156 11.488281 -10.207031 10.15625 -10.4375 C 8.832031 -10.675781 7.175781 -10.707031 5.1875 -10.53125 L 5.1875 -13.296875 L 12.59375 -18.109375 L 12.59375 -18.375 L 1.84375 -18.3125 L 1.84375 -22.25 L 17.53125 -22.25 L 17.53125 -17.765625 L 10.5 -12.984375 L 10.5 -12.6875 C 12.632812 -12.800781 14.3125 -12.582031 15.53125 -12.03125 C 16.75 -11.476562 17.628906 -10.71875 18.171875 -9.75 C 18.710938 -8.789062 18.984375 -7.726562 18.984375 -6.5625 C 18.984375 -5.125 18.644531 -3.878906 17.96875 -2.828125 C 17.300781 -1.773438 16.273438 -0.960938 14.890625 -0.390625 C 13.515625 0.179688 11.78125 0.46875 9.6875 0.46875 Z M 9.6875 0.46875 "/></g></g></g></g></g></g><g transform="matrix(1, 0, 0, 1, 109, 312)"><g clip-path="url(#3084ec72ba)"><g fill="#ffffff" fill-opacity="1"><g transform="translate(0.601174, 31.878509)"><g><path d="M 0.78125 -4.34375 L 0.78125 -9.015625 C 1.875 -10.296875 2.847656 -11.519531 3.703125 -12.6875 C 4.554688 -13.851562 5.296875 -14.96875 5.921875 -16.03125 C 6.546875 -17.101562 7.085938 -18.15625 7.546875 -19.1875 C 8.015625 -20.21875 8.414062 -21.238281 8.75 -22.25 L 17.09375 -22.25 L 17.09375 0 L 12.3125 0 L 12.3125 -18.984375 L 11.984375 -18.984375 C 11.441406 -17.585938 10.832031 -16.28125 10.15625 -15.0625 C 9.488281 -13.84375 8.765625 -12.695312 7.984375 -11.625 C 7.210938 -10.5625 6.398438 -9.535156 5.546875 -8.546875 L 5.546875 -8.21875 L 20.15625 -8.21875 L 20.15625 -4.34375 Z M 0.78125 -4.34375 "/></g></g></g></g></g><g clip-path="url(#6e9a915ba2)"><g clip-path="url(#f6076deed7)"><g clip-path="url(#90c044b383)"><path fill="#14bf65" d="M 172.117188 372.425781 C 170.464844 374.589844 168.585938 376.578125 166.488281 378.339844 C 144.847656 396.492188 110.265625 386.015625 102.351562 359.011719 C 97.957031 344.023438 88.125 331.234375 75.714844 321.75 C 75.683594 321.726562 75.65625 321.707031 75.628906 321.6875 C 64.933594 313.304688 54.15625 305.085938 42.605469 297.902344 C 37.125 294.472656 31.382812 291.375 25.152344 289.578125 C 21.113281 288.441406 8.554688 284.507812 7.449219 291.507812 C 7.160156 293.28125 7.792969 295.023438 8.457031 296.660156 C 16.960938 318.371094 30.765625 339.175781 51.402344 350.945312 C 63.253906 357.707031 75.144531 363.847656 80.203125 377.402344 C 84.5625 389.082031 83.296875 402.570312 76.519531 413.070312 C 62.457031 434.867188 31.863281 437.980469 13.691406 418.972656 C 1.757812 406.484375 -0.65625 387.128906 7.789062 372.058594 C 19.476562 351.199219 0.332031 330.722656 -13.589844 316.46875 C -27.523438 302.203125 -47.496094 295.5 -64.566406 286.011719 C -82.132812 276.25 -98.871094 260.296875 -101.652344 239.460938 C -103.753906 223.726562 -99.042969 207.175781 -89.046875 194.855469 C -81.171875 185.148438 -69.980469 179.242188 -60.335938 171.582031 C -50.152344 163.492188 -45.585938 155.050781 -42.046875 142.671875 C -35.574219 120.03125 -35.703125 95.496094 -42.707031 72.996094 C -45.183594 65.046875 -48.503906 57.234375 -49.21875 48.9375 C -50.835938 30.097656 -36.832031 11.210938 -18.367188 7.132812 C 0.09375 3.054688 20.667969 14.179688 27.507812 31.808594 C 33.015625 46.003906 29.175781 62.996094 19.0625 74.171875 C 13.429688 80.394531 6.683594 84.769531 1.574219 91.679688 C -4.453125 99.828125 -8.710938 109.269531 -10.492188 119.265625 C -13.304688 135.066406 -13.34375 151.183594 -6.289062 163.746094 C 5.015625 183.894531 29.976562 176.089844 47.617188 170.835938 C 69.5625 164.300781 97.929688 153.363281 111.761719 134.125 C 117.21875 126.542969 118.886719 117.242188 124.214844 109.839844 C 133.722656 96.617188 151.445312 89.359375 167.425781 93.214844 C 185.824219 97.652344 199.65625 116.535156 198.078125 135.390625 C 196.992188 148.34375 188.683594 159.996094 177.535156 166.371094 C 165.882812 173.035156 154.519531 170.65625 141.898438 169.015625 C 126.066406 166.960938 109.765625 168.804688 94.75 174.207031 C 79.597656 179.65625 60.550781 187.117188 49.988281 199.667969 C 35.085938 217.375 67.386719 223.40625 78.824219 225.226562 C 93.304688 227.539062 107.964844 227.851562 122.550781 229.132812 C 130.816406 229.859375 139.296875 231.472656 147.582031 230.0625 C 157.339844 228.402344 163.367188 222.023438 170.5 215.730469 C 174.492188 212.203125 179.945312 209.714844 184.988281 208.175781 C 195.109375 205.089844 206.652344 205.496094 216.015625 210.707031 C 239.722656 223.886719 243.9375 255.574219 224.875 274.453125 C 216.726562 282.523438 205.171875 286.59375 193.765625 285.734375 C 180.792969 284.761719 170.804688 275.828125 160.304688 269.058594 C 146.523438 260.175781 131.921875 253.457031 115.613281 251.074219 C 79.261719 245.769531 40.332031 244.082031 42.863281 258.621094 C 45.167969 271.898438 62.703125 281.414062 72.988281 287.800781 C 92.773438 300.09375 109.503906 308.234375 133.320312 308.878906 C 141.441406 309.097656 149.785156 308.890625 157.402344 311.710938 C 165.472656 314.699219 172.132812 321.011719 176.167969 328.613281 C 183.449219 342.324219 181.46875 360.171875 172.117188 372.425781 Z M 172.117188 372.425781 " fill-opacity="1" fill-rule="nonzero"/></g></g></g></g></g></svg>